<svg id="Layer_1" data-name="Layer 1" xmlns="http://www.w3.org/2000/svg" viewBox="0 0 614.22 442.15"><defs><style>.cls-1,.cls-3{fill:none;stroke:#000;stroke-linecap:round;stroke-linejoin:round;}.cls-1{stroke-width:3px;}.cls-2{fill:#ffd139;}.cls-3{stroke-width:3.6px;}.cls-4{font-size:72px;font-family:NotoSansCJKtc-Light-B5pc-H, Noto Sans CJK TC;}</style></defs><title>hero1</title><path class="cls-1" d="M663.5,921.5c-3.2.4-6.2.9-9.4,1.5a8.6,8.6,0,0,0-2.7.9,6.14,6.14,0,0,0-2,3,25.94,25.94,0,0,0-1.6,6.8c-.4,4.2.8,9.2,4.5,11.2,2.5,1.4,5.4,1.2,8.3,1s6.2-.6,8.5-2.6a9.3,9.3,0,0,0,2.6-4.2,11.87,11.87,0,0,0-1.5-10.2,12.65,12.65,0,0,0-8.8-5.5M693,909.8c-3.1.1-6.4.4-8.7,2.3a9.22,9.22,0,0,0-3,6.4,29.21,29.21,0,0,0,.6,7.2,7.17,7.17,0,0,0,.7,2.5,4.36,4.36,0,0,0,1.3,1.4,18,18,0,0,0,15.7,3.5,8.71,8.71,0,0,0,3.1-1.4c2.6-2.1,2.8-5.9,2.1-9.2a21.14,21.14,0,0,0-4.1-9,13.46,13.46,0,0,0-8.5-4.9m-20.1,19.8a12.12,12.12,0,0,1,4.3-2.9,4.44,4.44,0,0,1,4.8,1.1m22.4-12.5a50.07,50.07,0,0,1,4.2-10.5,20.79,20.79,0,0,1,5.9-7.2,9.66,9.66,0,0,1,9-1.4,4.43,4.43,0,0,1,2.8,3" transform="translate(-262.89 -514.65)"/><path class="cls-1" d="M655.9,922.8c.8-1.8,1.6-3.5,2.4-5.3a37.06,37.06,0,0,1,2.9-5.6,32.55,32.55,0,0,1,10.9-10.3,9.24,9.24,0,0,1,3.6-1.5,3.07,3.07,0,0,1,3.1,2.1" transform="translate(-262.89 -514.65)"/><path class="cls-1" d="M711.2,711.6c-4.9.9-9.9,1.8-14.9,2.7a11.38,11.38,0,0,0-4.8,1.6c-1.4,1-2.4,2.9-1.8,4.4.7,1.9,3,2.7,4.9,3.1,3.5.8,7.1,1.6,10.6,1.2,3.3-.3,6.4-1.6,9.5-2.9,1.5-.6,3.2-1.4,3.9-2.8,1.1-1.9.2-4.3-1.5-5.6a7.67,7.67,0,0,0-6.1-1.1" transform="translate(-262.89 -514.65)"/><path class="cls-1" d="M688.9,720c1.5,8.5,2.9,17.1,4.3,25.5a8.65,8.65,0,0,0,.6,2.3,8.34,8.34,0,0,0,1.9,2.3,18.78,18.78,0,0,0,26.4-2.3" transform="translate(-262.89 -514.65)"/><path class="cls-1" d="M719.2,716.5c1.3,8.6,2.6,17.1,3.8,25.7.3,2.2.5,4.8-1.2,6.3" transform="translate(-262.89 -514.65)"/><path class="cls-1" d="M720.5,725.1c-.5-2.3,1.5-3.4,3.4-4.6a5.73,5.73,0,0,1,6.6.6c1.8,1.5,2.5,3.9,2.8,6.3.5,3.2.6,6.5-1.2,9.2a7.65,7.65,0,0,1-9,2.6" transform="translate(-262.89 -514.65)"/><path class="cls-1" d="M721.4,729.9c.8-1.7,1.4-5,3.2-5.4a4,4,0,0,1,4.6,2.3,6.88,6.88,0,0,1,.2,2.5,9.71,9.71,0,0,1-1.5,5.5c-1.1,1.6-3.4,2.5-5,1.4" transform="translate(-262.89 -514.65)"/><path class="cls-1" d="M544.9,758.3a19.19,19.19,0,0,0-7.1-1.1,6.21,6.21,0,0,0-3,.6,6.39,6.39,0,0,0-2.6,2.8,12.6,12.6,0,0,0,.1,12.2c.9,1.5,2.1,2.9,2.8,4.4.9,1.9,1,4,1.6,6.1s2,4,4,4.4c2.6.4,4.8-1.9,6-4.2,2,2.5,5.2,4.5,8.2,3.3s3.7-4.6,4.4-7.6a74.62,74.62,0,0,1,4.3-12.3c1.2-2.6,2.6-5.5,1.5-8.2-.9-2.2-3.3-3.4-5.5-4.2a16.07,16.07,0,0,0-7.8-1,9,9,0,0,0-6.5,4m.3,1.6a9.14,9.14,0,0,0-6-7.6" transform="translate(-262.89 -514.65)"/><path class="cls-1" d="M544.9,756.3c.2-2.1-.4-4.1.3-6.1s2.6-3.4,4.3-4.5c-.3,1.9.7,3.8.4,5.7-.4,2.2-2.3,3.5-4,4.8m-6.5,5.6c-1.6.3-3.5-.5-4.7.6a3.17,3.17,0,0,0-.8,2.5,7.69,7.69,0,0,0,1.4,4m2.7-6.3a6.17,6.17,0,0,0-2.3,6.2" transform="translate(-262.89 -514.65)"/><path class="cls-1" d="M683.9,786.6c-.1-1.4,1.9-2.3,3.1-1.5a3.55,3.55,0,0,1,1.4,3.6,5.3,5.3,0,0,1-2.3,3.9,8.19,8.19,0,0,1-3,1c-8.1,1.7-16.2,3.4-24.2,5.1-1.4.3-3,.7-3.7,1.8-1.2,1.6-.5,3.9,1,5.2a12.63,12.63,0,0,0,5.3,2.3c10.2,2.5,20.5,4.8,30.7,7.3,4,1,8.9,1.8,12-1.1,1-.9,1.8-2.4,1.4-3.6a5.53,5.53,0,0,0-2.2-2.6c-4.2-3.3-8.5-6.4-12.6-9.7a11.5,11.5,0,0,1-2.3-2.1,16.09,16.09,0,0,1-1.7-2.8,2.82,2.82,0,0,1-.2-1.8c0-.1,0-.1.1-.2h.1c.2,0,.4.1.7.1s.5,0,.6-.2v-.1c0-.1-.1-.1-.1-.2-.2-.1-.3-.2-.5-.3a.37.37,0,0,1-.2-.5c.1-.2.4-.2.7-.2s.5-.1.8-.1c.1,0,.1,0,.2-.1s0-.4-.2-.5-.4-.1-.6-.2a.37.37,0,0,1-.2-.5" transform="translate(-262.89 -514.65)"/><path class="cls-1" d="M757.5,808.5c3.8,3.5,7.8,7.1,11.6,10.5,1.9,1.7,3.8,3.7,3.4,6.2a18.42,18.42,0,0,0-2.5-.5,5.73,5.73,0,0,1-1.4-.4,9.38,9.38,0,0,1-1.2-.9c-4.3-3.9-8.7-8-13.1-11.9a3.38,3.38,0,0,1-1.3-1.8,2.15,2.15,0,0,1,1.1-2.3,1.92,1.92,0,0,1,2.4.7" transform="translate(-262.89 -514.65)"/><path class="cls-1" d="M759.3,809.5c1-1.6,2.1-3.3,1.8-5s-1.9-3.1-3.4-3.9a8.6,8.6,0,0,0-2.7-.9,4.75,4.75,0,0,0-3.9,1.7,14.55,14.55,0,0,0-2.5,3.6,7.3,7.3,0,0,0-.9,3.5,7,7,0,0,0,1.5,3.4,8.74,8.74,0,0,0,3.6,3.3c1.6.6,3.5.4,4.4-1" transform="translate(-262.89 -514.65)"/><path class="cls-1" d="M757.2,800.3a8.37,8.37,0,0,0-4.6-1,5,5,0,0,0-2.1.2,4.51,4.51,0,0,0-1.4,1,9.51,9.51,0,0,0-2.8,8,8.19,8.19,0,0,0,5.1,6.5" transform="translate(-262.89 -514.65)"/><path class="cls-1" d="M745.1,806.8a31.74,31.74,0,0,0-5.4-5c-.4-.3-.8-.5-1-1a1.68,1.68,0,0,1,.3-1.5,9.85,9.85,0,0,1,4.5-4.3,3.18,3.18,0,0,1,.9-.3c1.2-.2,2.4.6,3.4,1.4,1.2,1,2.4,1.9,3.5,2.9" transform="translate(-262.89 -514.65)"/><path class="cls-1" d="M747,795.3c.1-1.3.2-2.6.3-3.8a3.08,3.08,0,0,0-.1-1,1.76,1.76,0,0,0-.9-.8c-1.6-1-3.4-2-5.3-1.8-2.3.2-4,2-5.3,3.8a11.78,11.78,0,0,0-2.2,5.3,5.87,5.87,0,0,0,2,5.2,4.09,4.09,0,0,0,5.3.1" transform="translate(-262.89 -514.65)"/><path class="cls-1" d="M547.5,724.2a118.24,118.24,0,0,1,7.6-12.2c3.4-4.5,7.6-8.7,10-13.9,2.2-4.6,2.7-9.9,4.9-14.5-2.3-3.4-6.8-4.2-10.7-4.7a66.24,66.24,0,0,0-9.9-.9c-2.4,0-4.7.3-7.2.5a3.88,3.88,0,0,0-1.9.6,3.37,3.37,0,0,0-.9,2.2c-2.1,15,5.4,29.6,7.5,44.6" transform="translate(-262.89 -514.65)"/><path class="cls-1" d="M569.9,684.1a4.52,4.52,0,0,0,4.2-1.1c1.1-1.1,1.4-3,.4-4a6.42,6.42,0,0,0-1.3-1,42.18,42.18,0,0,0-32.9-4,3.65,3.65,0,0,1,.8,3.8c-.5,1.3-2.3,2.1-3.4,1.2a2.45,2.45,0,0,1-.3-3.3,3.6,3.6,0,0,1,3.3-1.3m22.2,13.9a3.39,3.39,0,0,1,.7,2.7,2.21,2.21,0,0,1-1.3,1.2,4.59,4.59,0,0,1-5.7-2.1,1.93,1.93,0,0,1-.3-1,2.32,2.32,0,0,1,1.4-1.8,6.33,6.33,0,0,1,3.2-1,3.19,3.19,0,0,1,2.8,1.6m-15.2-2.2a5.25,5.25,0,0,1,1,3.5,3.23,3.23,0,0,1-2.3,2.8,1.39,1.39,0,0,1-.9,0,2.09,2.09,0,0,1-.6-.4c-.6-.4-1.2-.9-1.8-1.3a3.18,3.18,0,0,1-1-1,1.91,1.91,0,0,1,.4-2,5.67,5.67,0,0,1,1.8-1.2,7.06,7.06,0,0,1,2.4-.6,2.19,2.19,0,0,1,2,1.3m4.3,13.3a2.77,2.77,0,0,1-1.7,2.1,3.61,3.61,0,0,1-2.7.1,3.36,3.36,0,0,1-1.6-1,2.82,2.82,0,0,1-.3-2.8,4.1,4.1,0,0,1,2.1-2,2.5,2.5,0,0,1,1.7-.1c.3.1.5.4.7.6a6.7,6.7,0,0,1,2.2,3.4m-.6,10.1a9.68,9.68,0,0,1-3.1,1.8,2.51,2.51,0,0,1-1.9.1,2.65,2.65,0,0,1-.6-.5,5.26,5.26,0,0,1-1.5-2.6,3.11,3.11,0,0,1,.7-2.8,3.05,3.05,0,0,1,4,.2,6.74,6.74,0,0,1,2,3.8" transform="translate(-262.89 -514.65)"/><path class="cls-1" d="M753.1,857.9a3.2,3.2,0,0,0-3.3,3,5.36,5.36,0,0,0,2,4.3,7,7,0,0,0,4,1.8,4,4,0,0,0,3.8-1.9,8.21,8.21,0,0,0,.7-4.4,2.38,2.38,0,0,0-.3-1.2,3.11,3.11,0,0,0-.9-.7,15.23,15.23,0,0,0-6.3-1.4" transform="translate(-262.89 -514.65)"/><path class="cls-1" d="M747.7,854.6a2.68,2.68,0,0,0-.6,3.6,3,3,0,0,0,3.6.9,3.1,3.1,0,0,0,1.5-3.5.52.52,0,0,0-.2-.4,1.27,1.27,0,0,0-.6-.1h-6" transform="translate(-262.89 -514.65)"/><path class="cls-1" d="M751.9,857a14.79,14.79,0,0,0,4.3-5.9,4.73,4.73,0,0,1,.7-1.2c1.1-1,3,.1,4.2-.7m-8,8.1c1.3-.8,2.6-1.6,3.7-2.4a8.85,8.85,0,0,1,3.4-1.6,3.33,3.33,0,0,1,3.4,1m-9.4,2.7h9.4c1.5,0,3.4.2,4.1,1.5m-17.2.2c-2.6.4-4.7,2.5-7.3,3a7.71,7.71,0,0,0-2.6.7c-.8.5-1.1,1.7-.4,2.2m8.8-4.7-4.4,4.7a2.29,2.29,0,0,0-.7,1,2.23,2.23,0,0,0,0,1.4,7.51,7.51,0,0,1-.4,3.3m5.2-8.5a30.72,30.72,0,0,0-.5,6.7,10.07,10.07,0,0,0,2.5,6.2" transform="translate(-262.89 -514.65)"/><path class="cls-1" d="M751.4,859.1h-13a2.77,2.77,0,0,0-.9.1,1.06,1.06,0,0,0-.6.7c-.7,1-1.4,2.1-2.1,3.1m18.3-7.5a21.46,21.46,0,0,1-1.8-4.8c-.2-1.1-.2-2.4.7-3,.8-.4,2-.3,2.2-1.2m-2.4,12.8a4.06,4.06,0,0,0-.4,1.9c.4-.7.8-1.4,1.2-2a7.5,7.5,0,0,0-.9,3c.6-1.2,1.2-2.5,1.8-3.6a13.22,13.22,0,0,1-.4,4.9,19.32,19.32,0,0,1,1.8-4.4,49,49,0,0,1-.4,5.4c.4-1.7.9-3.4,1.3-5a24.13,24.13,0,0,1-.2,6c.8-1.9,1.6-3.6,2.4-5.5v4.7a14.25,14.25,0,0,1,1.1-3.5,18.29,18.29,0,0,1-.2,3.3,7.41,7.41,0,0,0-.1-2.1,2.59,2.59,0,0,0-4.3-1.6,8.81,8.81,0,0,0-2.2,2.5,16.83,16.83,0,0,1,.1-3.9,4.77,4.77,0,0,0,1.5,4.4m-6.3-7.9a2.62,2.62,0,0,0-.2,1.5,3.29,3.29,0,0,0,.7-1.3v1.7a10.54,10.54,0,0,0,.5-1.9v1.6a4,4,0,0,0,.7-1.8,16,16,0,0,0,.5,2.1,2.09,2.09,0,0,0,.7-1.3v1" transform="translate(-262.89 -514.65)"/><path class="cls-1" d="M751.6,858.6c-.1,1.3-.2,2.6-.3,3.8a6.6,6.6,0,0,0,1.2-2.7,7,7,0,0,0,.5,3.5,4.37,4.37,0,0,0,.9,1.8,2.86,2.86,0,0,0,2.2.6,3.74,3.74,0,0,0,2-1.2.64.64,0,0,1,0,.6,24.07,24.07,0,0,0,1.7-5.8c-.4.6-.7,1.2-1.1,1.9a15.81,15.81,0,0,0-.4-3.8,8.55,8.55,0,0,0-2.2,2.8c-.3-.7-.7-1.4-1-2.1-.4,0-.5.5-.6.8s-.4.8-.7.6" transform="translate(-262.89 -514.65)"/><path class="cls-1" d="M748,855.9a12.1,12.1,0,0,0,3.8,0,13.8,13.8,0,0,0-.1,3.5,17.83,17.83,0,0,0,1.4,5.5c-.7-.7-1.4-1.3-2.1-2a2.36,2.36,0,0,0,3.3,1.2,4.66,4.66,0,0,0,1.7-3.3,17.53,17.53,0,0,0,.8,5.1c.4-2.1.7-4.1,1.1-6.3.1,1.2.3,2.4.4,3.6.1-1.2.1-2.4.2-3.6a4,4,0,0,1,.7,2.1,6.34,6.34,0,0,1-3-.5c.2-.3.4-.7.6-1l-4.6,4a3.64,3.64,0,0,1,.4-2.7" transform="translate(-262.89 -514.65)"/><path class="cls-1" d="M408.8,764.2a43.76,43.76,0,0,1,17.6,2.5,15.76,15.76,0,0,1,6.3,3.6c2.8,2.9,3.4,7.1,3.4,11.1a13.55,13.55,0,0,1-1,5.6c-1.9,4.2-6.6,6.2-11.1,7.2-6.3,1.4-13.5,1.1-18.7-2.7a16.47,16.47,0,0,1-6.4-15.1,16,16,0,0,1,10.4-12.6" transform="translate(-262.89 -514.65)"/><path class="cls-1" d="M422.9,766.5c-.5,4.2-1,8.5-1.3,12.7-.1,1.4-.1,3,.9,3.9a4.74,4.74,0,0,0,2.4,1,27,27,0,0,0,8.5.4m-25.8-6c-3.4-.6-6.7-2.1-10-3.4a80.43,80.43,0,0,0-32.2-5.2m48.1-3.1a282.64,282.64,0,0,0-.6-29.1m-35.1-15.3c-2.3.1-4.1,1.5-5.9,2.8-2,1.5-4.1,3.1-5.3,5.2-1.5,2.7-1.5,5.9-1.4,9a6.3,6.3,0,0,0,.9,3.9c1.1,1.6,3.3,1.9,5.1,2.1" transform="translate(-262.89 -514.65)"/><path class="cls-1" d="M422.3,733.8a12.56,12.56,0,0,1,4,2.8,4.7,4.7,0,0,1-2.9,8.1,114.9,114.9,0,0,1-45.5-5,2.59,2.59,0,0,1-1.4-1.1c-.5-1,.2-1.8.8-2.4a50.41,50.41,0,0,1,44.3-12.9m5,74.2a66.44,66.44,0,0,0,3.4,13.1m-24.1-15.3a23.69,23.69,0,0,1-3,3.9m-10.2-.3c2.7.8,4.9,2.6,7.4,3.8a29.26,29.26,0,0,0,10.6,3.4m21.6,8a142.92,142.92,0,0,0,26.9-3.8m-35.9.5a51.93,51.93,0,0,0,20.7-2.4" transform="translate(-262.89 -514.65)"/><path class="cls-1" d="M404.9,738.9a27.87,27.87,0,0,1-8.7-3.7c-1-.6-2-1.6-1.8-2.7.2-1.3,1.8-1.8,3.2-1.9a82.53,82.53,0,0,1,12.2-.3m-44.4,32.2a7.75,7.75,0,0,1,8.5,2.7,8,8,0,0,1-.3,9.6,8.51,8.51,0,0,1-9.4,2.3,8.39,8.39,0,0,1-4.6-5,4.77,4.77,0,0,1-.1-2.9,4.52,4.52,0,0,1,1.1-1.7,22.62,22.62,0,0,1,5.2-4.6m6,1.3a104.34,104.34,0,0,0-8,9.6m.3-9.3,6.9,10.2m3.9-6.4a21.1,21.1,0,0,1-13,3m0-4a72.84,72.84,0,0,0,8.8,5.6" transform="translate(-262.89 -514.65)"/><path class="cls-1" d="M495.1,732.5c-1.4-2.1-4.3-2.6-6.8-2.3s-5,.9-7.5.3a7.94,7.94,0,0,1-5.7-6.8,10.86,10.86,0,0,1,2.8-8.7,8.48,8.48,0,0,1,5.1-3.2,8.7,8.7,0,0,1,5.4,1.3,15.32,15.32,0,0,1,5,4.8c1.5,2.3,2.3,5,4.1,7a10.62,10.62,0,0,1,1.7,2,4.1,4.1,0,0,1-.5,4,11.11,11.11,0,0,1-3.2,2.9" transform="translate(-262.89 -514.65)"/><path class="cls-1" d="M497.1,731.4l-2.1-1.5a5.85,5.85,0,0,1-1.4-1.3,1.52,1.52,0,0,1,.2-1.8.37.37,0,0,1,.3-.1.35.35,0,0,1,.2.1,1,1,0,0,1,.5.4.48.48,0,0,1-.2.6.6.6,0,0,1-.4-.1,2.37,2.37,0,0,1-1.1-1.3,1.1,1.1,0,0,1,0-.8.78.78,0,0,1,.8-.2,3.51,3.51,0,0,1,.8.5c1.1.9,2.2,1.9,3.3,2.8" transform="translate(-262.89 -514.65)"/><path class="cls-1" d="M495.8,733.3a11.59,11.59,0,0,0,2.8,3.4c.3.2.5.5.9.5a2.1,2.1,0,0,0,1.5-.5,9.55,9.55,0,0,0,2.1-2.4,1.61,1.61,0,0,0,.3-.9,2.4,2.4,0,0,0-.4-1.6,14.29,14.29,0,0,0-4-4.8m-.8,8.8a13,13,0,0,0,3.5-3.9m-4,2.9c1-1.5,1.9-3.1,2.7-4.6m.7,7.1a2.75,2.75,0,0,0,1.8-.2,1.39,1.39,0,0,0,.8-.7,2.14,2.14,0,0,0-.5-2" transform="translate(-262.89 -514.65)"/><path class="cls-1" d="M382.9,884.7c-4.4.6-9.1-.8-13.3.7-4.7,1.8-7.5,6.8-8.9,11.6a39.27,39.27,0,0,0-1.2,12.8,5,5,0,0,0,1.2,3.4,4.21,4.21,0,0,0,2,1,17.46,17.46,0,0,0,13.6-1.3,18.11,18.11,0,0,0,8.6-10.6,9.48,9.48,0,0,0,.3-5,14,14,0,0,0-2.2-4.4c-1.4-2.2-2.9-4.3-4.2-6.5m-6,10.2a149.93,149.93,0,0,1,.9-28.4m.3,5.5c5.7,1,9.9,5.8,14,9.9,7.9,7.8,17.1,13.8,26.4,19.8" transform="translate(-262.89 -514.65)"/><path class="cls-1" d="M373.1,869.9c12.4.2,24.8.1,37.3-.3l-.6,38.4" transform="translate(-262.89 -514.65)"/><path class="cls-1" d="M409.1,871.9c2.6.3,4.9,1.8,7,3.4A99.09,99.09,0,0,1,431,888.6M413.7,902c8.1,1.3,15.8-3.4,23.9-4.2" transform="translate(-262.89 -514.65)"/><path class="cls-1" d="M438.7,873.4c-3.6-.8-7.6,1.1-10.1,3.9s-3.7,6.6-4.4,10.2c-1.3,6.1-1.4,12.6,1.4,18.2s9,9.8,15.1,8.7c5.3-.9,9.4-5.4,11.2-10.4s1.8-10.5,1.5-15.9a32.48,32.48,0,0,0-1.4-8.9c-2.2-6-9.1-10.6-15.2-8.6m-32.3,0V857.8m-7.4.5h13.8m-39.5,10.8a21.49,21.49,0,0,0-.7-8.4,10.43,10.43,0,0,0-5.2-6.4,8.66,8.66,0,0,0-8.5,1.1,11.22,11.22,0,0,0-4.2,7.6,4.64,4.64,0,0,0,1,4c1.3,1.2,3.3.9,4.9.6" transform="translate(-262.89 -514.65)"/><path class="cls-1" d="M431,890.3c1.6-.4,3.1.8,4,2.2s1.6,2.9,2.8,3.9M405.4,909a9.1,9.1,0,0,1,4.9.8" transform="translate(-262.89 -514.65)"/><path class="cls-1" d="M698,849.5c-3.4-1.2-7.4.2-10.1,2.7s-4.3,5.9-5.6,9.3c-1.3,3.2-2.4,6.6-1.9,10a14.36,14.36,0,0,0,6,9.5,20.16,20.16,0,0,0,10.7,3.6,16.66,16.66,0,0,0,5.9-.4,11.7,11.7,0,0,0,4.6-2.6,18.51,18.51,0,0,0,6.3-19.2,16.9,16.9,0,0,0-15.9-12" transform="translate(-262.89 -514.65)"/><path class="cls-1" d="M683.5,860.6c4,3.1,6.7,8.1,6.2,13.1a27.86,27.86,0,0,1-2.4,7.4m13.9-29.4a18.41,18.41,0,0,0,.3,3.3c.3,1.3.7,2.5,1.1,3.7a36.48,36.48,0,0,0,3.5,7.8,11.29,11.29,0,0,0,6.7,5,6.89,6.89,0,0,1-.8-.3" transform="translate(-262.89 -514.65)"/><path class="cls-1" d="M680.6,870.7c1.6-.1,3.2-.2,4.8-.2a29.85,29.85,0,0,0,4.3-.4c1.6-.3,3.2-.8,4.7-1.2a53,53,0,0,0,9.6-3.7,15.48,15.48,0,0,0,6.9-7.4" transform="translate(-262.89 -514.65)"/><path class="cls-1" d="M689.9,849.1c.1,2.9,1.9,5.3,3.4,7.8a45.67,45.67,0,0,1,6.8,27c0,.2-.1.4-.2.4s-.2-.3-.1-.3" transform="translate(-262.89 -514.65)"/><path class="cls-2" d="M584.2,857.4c4.8-8.1,9-12.9,14.4-20.2,1.1-1.5,6.1-3.4,8-3.4,2.1,0,3.9,1.5,5.2,3.2,3.4,4.4,6.6,11.6,5.4,17.1s-6.6,9.5-10.8,13.2c3.4-3.3,6.7-6.4,10.2-9.7a6.14,6.14,0,0,1,2.7-1.8c2.3-.7,4.4,1.2,5.8,3.1,11.5,15.2,4.3,23.7-4.9,30.2,2.9-2.6,5.6-5.1,8.5-7.6a4.65,4.65,0,0,1,2.1-1.3,4.38,4.38,0,0,1,3.2,1c8.5,5.8,10.2,19.4,3.5,27.3-2.6,3-5.9,5-9.2,7.1-8.3,5.1-16.4,10.5-23.6,17.1-13.8,12.7-16.9,15.9-33.7,24.1,0,0-2.3-.3-6-.7-5-.7-10-.7-14.9-1.7-23.7-8.9-47.3-23.7-73.9-14.8,10.8-12.8,30.6-21.7,30.7-40.9a83.82,83.82,0,0,0,2.7-8.7,19.2,19.2,0,0,0,.8-6c-1.5-10.4-10.9-37.5-10.9-41.7s-1.5-6.9-2.4-11.1c-1-4.8.6-6.6,0-11.9-.5-4.9-1.8-17.6.4-22,6-2.4,14.2,0,18.7,4.6,5.6,5.7,6.4,14.2,8.8,21.9,1.3,4.2,2.1,8.7,3.4,13,3,10.2,5.2,11,12.8,18.5,2.4-.3,7.4-3.7,8.8-5.7,23.4-33.8,51.8-60.6,72.8-95.9a4.17,4.17,0,0,1,.6-.8c8.4-11.2,26.1-2.4,22.4,11.1-.3,1-.6,2-.9,2.8-2.8,7.8-7.5,14.7-12.1,21.6-10.8,16.2-37.9,53.3-48.8,69.5l.2-.5Z" transform="translate(-262.89 -514.65)"/><path class="cls-1" d="M467.6,942.2l21.9-21.9c3.1-3.1,6.1-6.2,7.7-10.2,1.9-4.8,9.8-24.1,9.1-29.3-1.5-10.4-10.9-37.5-10.9-41.7s-1.5-6.9-2.4-11.1c-1-4.8.6-6.6,0-11.9-.5-4.9-1.8-17.6.4-22,6-2.4,14.2,0,18.7,4.6,5.6,5.7,6.4,14.2,8.8,21.9,1.3,4.2,2.1,8.7,3.4,13,3,10.2,5.2,11,12.8,18.5,2.4-.3,7.4-3.7,8.8-5.7,23.4-33.8,51.8-60.6,72.8-95.9a4.17,4.17,0,0,1,.6-.8c8.4-11.2,26.1-2.4,22.4,11.1-.3,1-.6,2-.9,2.8-2.8,7.8-7.5,14.7-12.1,21.6-10.8,16.2-37.9,53.3-48.8,69.5" transform="translate(-262.89 -514.65)"/><path class="cls-1" d="M580.3,854.5c4.8-8.1,9-12.9,14.4-20.2,1.1-1.5,6.1-3.4,8-3.4,2.1,0,3.9,1.5,5.2,3.2,3.4,4.4,6.6,11.6,5.4,17.1s-6.6,9.5-10.8,13.2c3.4-3.3,6.7-6.4,10.2-9.7a6.14,6.14,0,0,1,2.7-1.8c2.3-.7,4.4,1.2,5.8,3.1,11.5,15.2,4.3,23.7-4.9,30.2,2.9-2.6,5.6-5.1,8.5-7.6a4.65,4.65,0,0,1,2.1-1.3,4.38,4.38,0,0,1,3.2,1c8.5,5.8,10.2,19.4,3.5,27.3-2.6,3-5.9,5-9.2,7.1-8.3,5.1-16.4,10.5-23.6,17.1-13.8,12.7-16.9,15.9-33.7,24.1" transform="translate(-262.89 -514.65)"/><path class="cls-3" d="M629.4,729.8c-2.3-2.2-3.4-6.3-3.4-10.2a68.57,68.57,0,0,1,1.3-11.2,9.39,9.39,0,0,0-.1-5,25.3,25.3,0,0,0-1.3-2.2A16.7,16.7,0,0,1,624,694a56.45,56.45,0,0,1,.2-13" transform="translate(-262.89 -514.65)"/><path class="cls-1" d="M495.6,835l4.6-1.7m-6.4-5.1c1.1.2,2.3.5,3.4.7m-.9,11.8a3.36,3.36,0,0,1,1.7-3.1m-4.5-43.7c.9,2.2,1.8,4.2,2.7,6.4,1.4,3.4,2.9,6.9,2.8,10.5s-1.8,7.6-5.2,9m125.1-60.6a18,18,0,0,1,8.9-10.1,5.24,5.24,0,0,1,3.8-.7c1.7.5,2.7,2.3,3.4,3.8a17.52,17.52,0,0,1,1.8,6.3,14.18,14.18,0,0,1-2.2,7.4c-1.4,2.6-3.5,5.2-6.5,5.1-2.5-.1-4.4-2.2-5.8-4.3a37.69,37.69,0,0,1-2.6-4.8c-.7-1.5-1.2-3.4-.3-4.7M594,803.5a25.26,25.26,0,0,0,7.5,8.1M596,800.2a21.62,21.62,0,0,0,7.9,7.7m-3.6-8.1c1.5,2.4,4.3,3.4,5.9,5.7M595.8,796a12.46,12.46,0,0,1,7.7,2.5m-34.8,36.6a19.75,19.75,0,0,0,7.2,7.7" transform="translate(-262.89 -514.65)"/><path class="cls-3" d="M639.8,738.3c-2-1.3-2.3-5-2.3-8,.1-5,.3-10.1.7-15a25,25,0,0,0,0-6.7m-17,30.6a18.22,18.22,0,0,0-1.5-6.1c-1.7-5.2-1.9-11-2.1-16.8" transform="translate(-262.89 -514.65)"/><path d="M344.7,681.5c53.1-27.9,110.3-50.1,170.1-57.9,29.9-3.8,60.4-4,90.2.6,30.7,4.7,60.5,14.2,89.9,24.2,32.4,11,65.6,21.7,95.1,39.7a1.58,1.58,0,0,0,2.1-.5,87,87,0,0,0,6.3-13.5c4.5-12.2,10-24,15-36.1,6.5-15.3,13.6-30.6,18.4-46.5,1.6-5.3,3.1-9.7-2.8-12-21.5-8.9-42.4-18.6-64.3-26.6-27.7-10.1-55.9-15.7-84.7-21.5-24.6-5-49.4-9.9-74.4-12.9-25.5-3.1-51.5-4.7-77.2-3.4a565.59,565.59,0,0,0-71,8.3c-23.9,4.2-47,11.2-70,19.1-26.2,9-52.1,19.7-75.3,35.2-5.5,3.6-10.8,7.7-16,11.8a1.51,1.51,0,0,0-.2,1.8c16,29.7,30.7,59.9,46.7,89.6.9,1.7,3.4.2,2.6-1.5-16-29.7-30.7-59.9-46.7-89.6a11,11,0,0,0-.2,1.8c22.1-17.9,47.6-30.6,74.1-40.6,22.5-8.5,45.5-16.4,69-21.5a487.78,487.78,0,0,1,140-10.3,623.76,623.76,0,0,1,74.5,10.4c26.7,5.1,54,9.6,80.1,17.1,25,7.2,49.1,17.1,72.9,27.5,4.3,1.9,8.7,3.8,13,5.7,2,.8,6.8,2.2,7.9,3.3.4.5.3,2.3,0,3.7-1,4.9-3,9.7-4.6,14.3-3.5,9.5-7.5,18.7-11.3,28-5.7,13.5-11.8,26.9-17.1,40.6-2.2,5.7-4.2,11.1-7.3,16.4a16,16,0,0,1,2.1-.5c-25.9-16-54.8-25.9-83.4-35.8-30.6-10.5-61.2-21-93-26.9-59.4-11-120.2-3.1-177.3,15.5A601.41,601.41,0,0,0,343.4,679c-1.8.8-.3,3.4,1.3,2.5Z" transform="translate(-262.89 -514.65)"/><path d="M311.1,622.6c.3.2.3-.7-.2-.5-1.8.6-4.2,3.2-5.8,4.1-13.6,8.8-27.6,17-41.5,25.3-1,.6-1,2.5.4,2.7a277.16,277.16,0,0,1,50.6,12.5c1.7.6,4.6,1.1,6,2.3,3.7,3.1,2,6.1,1,9.5-1.2,4.4-2.5,8.8-3.6,13.2-2.6,9.1-5,18.1-7.6,27.3a1.52,1.52,0,0,0,2.2,1.7c22.7-9.9,44.7-20.9,66.6-32.3,1.7-.9.2-3.4-1.5-2.6-22,11.3-44.1,22.3-66.7,32.2.7.6,1.5,1.1,2.2,1.7,3-10.6,5.9-21.3,8.9-31.9,1.3-4.7,3.4-9.9,4-14.7a5.5,5.5,0,0,0-2.9-6c-3.6-2.1-8.3-3.3-12.2-4.5-4.9-1.7-9.9-3.2-14.9-4.5a259.58,259.58,0,0,0-31.3-6.5,25.13,25.13,0,0,0,.4,2.7c14.9-9,30.4-17.4,44.7-27.4,2.1-1.5,6.4-4.2,2.8-6.6C311,618.9,309.5,621.5,311.1,622.6Z" transform="translate(-262.89 -514.65)"/><path d="M367.8,669.4c3.3,6.3,6.2,12.7,9,19.2.8,1.8,3.3.2,2.6-1.5q-4.2-9.75-9-19.2C369.5,666.2,366.9,667.7,367.8,669.4Z" transform="translate(-262.89 -514.65)"/><path d="M378.7,685.4a126.16,126.16,0,0,0-30.4-5.5c-1.9-.1-1.9,2.9,0,3a135.38,135.38,0,0,1,29.6,5.4C379.7,688.9,380.5,686,378.7,685.4Z" transform="translate(-262.89 -514.65)"/><path d="M823,615.6c17.1,9,34.7,16.9,51.7,26V639c-9.8,4.1-19.2,9.1-29.1,13.2-5.3,2.3-10.8,4.2-16.4,6-1.6.5-3.8.6-5,1.9-.3.3-.3,1.5-.2,1.4-.3.4-1.1.2-1.4.8-.9,1.5-.2,4.8-.2,6.5v57.1c.8-.4,1.5-.9,2.3-1.3-21.3-15.4-45-25.3-69.7-34.2-.1,1-.3,2-.4,2.9,13-.7,25.2-5.5,38.1-6.2,1.9-.1,1.9-3.1,0-3-13,.7-25.2,5.5-38.1,6.2a1.48,1.48,0,0,0-.4,2.9c24.3,8.7,47.9,18.6,69,33.8a1.53,1.53,0,0,0,2.3-1.3V667c0-.4-.2-4.3-.5-3,0,.1-.2.8.3.1.3-.4.9-.7,1.2-1.2s.3-1.1.6-1.4c1-1.1-.6.6-.3.5,2.6-1.1,5.5-1.7,8.2-2.6,4.3-1.5,8.7-3.2,12.9-5,9.6-4.1,18.8-8.9,28.5-12.9,1-.4.9-2.1,0-2.6-17-9.2-34.6-17.1-51.7-26-1.9-.8-3.3,1.8-1.7,2.7Z" transform="translate(-262.89 -514.65)"/><path d="M757.2,691.3c3.7-5.4,5.6-11.8,9.2-17.3,1.1-1.6-1.5-3.1-2.6-1.5-3.5,5.5-5.5,11.9-9.2,17.3C753.6,691.4,756.1,692.9,757.2,691.3Z" transform="translate(-262.89 -514.65)"/><text class="cls-4" transform="translate(115.61 127.31) rotate(-24.31)"> </text><text class="cls-4" transform="translate(129.74 120.92) rotate(-22.14)"> </text><text class="cls-4" transform="translate(144.12 115.06) rotate(-20.03)"> </text><text class="cls-4" transform="translate(158.68 109.74) rotate(-17.95)"> </text><text class="cls-4" transform="translate(173.46 104.94) rotate(-15.87)"> </text><text class="cls-4" transform="matrix(0.98, -0.17, 0.17, 0.98, 187.3, 99.47)">算</text><text class="cls-4" transform="translate(256.26 87) rotate(-0.27)">一</text><text class="cls-4" transform="translate(326.28 86.62) rotate(9.27)">算</text></svg>